<?xml version="1.0" encoding="utf-8"?>
<!-- Generator: Adobe Illustrator 16.0.0, SVG Export Plug-In . SVG Version: 6.00 Build 0)  -->
<!DOCTYPE svg PUBLIC "-//W3C//DTD SVG 1.1//EN" "http://www.w3.org/Graphics/SVG/1.1/DTD/svg11.dtd">
<svg version="1.1"
	 id="Layer_1" xmlns:se="http://svg-edit.googlecode.com" xmlns:dc="http://purl.org/dc/elements/1.1/" xmlns:cc="http://creativecommons.org/ns#" xmlns:rdf="http://www.w3.org/1999/02/22-rdf-syntax-ns#" xmlns:inkscape="http://www.inkscape.org/namespaces/inkscape"
	 xmlns="http://www.w3.org/2000/svg" xmlns:xlink="http://www.w3.org/1999/xlink" x="0px" y="0px" width="66.275px" height="111px"
	 viewBox="0 0 66.275 111" enable-background="new 0 0 66.275 111" xml:space="preserve">
<title>my vector image</title>
<g>
	<title>Layer 1</title>
	
		<path id="svg_1" marker-end="" marker-mid="" marker-start="" fill="#4A90D6" stroke="#222222" stroke-width="2" stroke-linejoin="round" d="
		M-188.474,67.107"/>
	
		<path id="svg_2" marker-end="" marker-mid="" marker-start="" fill="#D50B0B" stroke="#222222" stroke-width="2" stroke-linejoin="round" d="
		M378.981-10.47"/>
	<path id="svg_4" marker-end="" marker-mid="" marker-start="" fill="#46A945" d="M-76.096-122.562l0.423-0.042l0,0l0,0l0.042,0.423
		c0.005,0.047-0.029,0.088-0.076,0.093l-0.423,0.042l0,0l0,0l-0.042-0.423l0,0C-76.177-122.515-76.143-122.557-76.096-122.562
		L-76.096-122.562z"/>
	<path id="svg_7" marker-end="" marker-mid="" marker-start="" fill="#D6493E" d="M20.749,23.245L38.807,1.195l22.049,18.06
		L42.797,41.304L20.749,23.245z"/>
	<path id="svg_14" marker-end="" marker-mid="" marker-start="" fill="#46A945" d="M1.708,47.289l18.059-22.049l22.05,18.06
		l-18.06,22.048L1.708,47.289z"/>
	<path id="svg_15" marker-end="" marker-mid="" marker-start="" fill="#F6CB0A" d="M7.113,90.534l18.059-22.048l22.049,18.058
		l-18.059,22.051L7.113,90.534z"/>
	<path id="svg_13" marker-end="" marker-mid="" marker-start="" fill="#4A88F0" d="M26.167,66.353l18.06-22.049l22.049,18.059
		l-18.059,22.05L26.167,66.353z"/>
</g>
</svg>
